# xmcd
#
# Track frame offsets: 
#        150
#        19532
#        38302
#        59635
#        76087
#        94197
#        110585
#        126385
#        148430
#        166652
#
# Disc length: 2431 seconds
#
# Revision: 24
# Processed by: cddbd v1.5.2PL0 Copyright (c) Steve Scherf et al.
# Submitted via: ExactAudioCopyFreeDBPlugin 1.0
#
DISCID=7e097d0a
DTITLE=Chris Rea - Water Sign
DYEAR=1983
DGENRE=Rock
TTITLE0=Nothing's Happening by the Sea
TTITLE1=Deep Water
TTITLE2=Candles
TTITLE3=Love's Strange Ways
TTITLE4=Texas
TTITLE5=Let It Loose
TTITLE6=I Can Hear Your Heart Beat
TTITLE7=Midnight Blue
TTITLE8=Hey You
TTITLE9=Out Of The Darkness
EXTD=
EXTT0=
EXTT1=
EXTT2=
EXTT3=
EXTT4=
EXTT5=
EXTT6=
EXTT7=
EXTT8=
EXTT9=
PLAYORDER=
